<svg width="23" height="20" viewBox="0 0 23 20" fill="none" xmlns="http://www.w3.org/2000/svg">
<path d="M22.4912 1.95021C22.4913 1.77357 22.4446 1.60007 22.3558 1.44735C22.2671 1.29464 22.1394 1.16817 21.9859 1.08084C21.8324 0.993502 21.6584 0.948416 21.4818 0.95017C21.3052 0.951925 21.1322 1.00046 20.9804 1.09083C20.3951 1.43921 19.765 1.70601 19.1074 1.88383C18.1684 1.07806 16.9708 0.637129 15.7334 0.641636C14.376 0.643198 13.0723 1.17223 12.0976 2.11702C11.123 3.06181 10.5536 4.3484 10.5098 5.70512C7.83378 5.27838 5.40843 3.88164 3.69625 1.78126C3.59308 1.65609 3.46133 1.55757 3.31211 1.494C3.16288 1.43043 3.00056 1.40368 2.83883 1.41601C2.67719 1.42932 2.52122 1.4818 2.38442 1.56892C2.24762 1.65603 2.13409 1.77516 2.05367 1.91601C1.6412 2.63582 1.4043 3.44276 1.36222 4.27131C1.32014 5.09986 1.47406 5.92666 1.81148 6.68456L1.80953 6.68651C1.65788 6.77991 1.53272 6.91066 1.44603 7.06625C1.35935 7.22185 1.31403 7.39708 1.31441 7.57519C1.31257 7.72211 1.32139 7.86898 1.34078 8.01464C1.44292 9.2729 2.00056 10.4507 2.90914 11.3271C2.8475 11.4446 2.80988 11.5731 2.79848 11.7052C2.78708 11.8373 2.80212 11.9704 2.84273 12.0967C3.23884 13.3308 4.08123 14.3727 5.20504 15.0185C4.06328 15.46 2.83046 15.614 1.61519 15.4668C1.39026 15.4386 1.16242 15.4876 0.969037 15.6059C0.775655 15.7242 0.628216 15.9047 0.550904 16.1178C0.473592 16.3309 0.470999 16.5639 0.54355 16.7787C0.6161 16.9935 0.759487 17.1772 0.950189 17.2998C3.04028 18.646 5.47387 19.3617 7.95996 19.3613C10.7792 19.393 13.5299 18.4921 15.7842 16.7988C18.0385 15.1054 19.6699 12.7145 20.4248 9.99801C20.7778 8.81464 20.9581 7.58648 20.96 6.35157C20.96 6.28614 20.96 6.21876 20.959 6.15138C21.4811 5.58831 21.8855 4.92668 22.1486 4.20527C22.4117 3.48387 22.5282 2.7172 22.4912 1.95021ZM19.1845 5.16212C19.0194 5.35746 18.9358 5.60891 18.9511 5.86427C18.9609 6.02927 18.9599 6.19527 18.9599 6.35157C18.9579 7.39511 18.8049 8.43287 18.5058 9.43263C17.8893 11.744 16.515 13.7817 14.6029 15.2192C12.6908 16.6568 10.3516 17.4111 7.95996 17.3613C7.10084 17.3616 6.24468 17.2606 5.40918 17.0606C6.47459 16.7172 7.47077 16.1879 8.35156 15.4971C8.51378 15.3693 8.63251 15.1945 8.69145 14.9967C8.75038 14.7988 8.74664 14.5875 8.68073 14.3918C8.61483 14.1961 8.48999 14.0257 8.32334 13.9038C8.15669 13.7819 7.9564 13.7145 7.74996 13.7109C6.91879 13.698 6.12509 13.363 5.53609 12.7764C5.68551 12.7481 5.83395 12.7129 5.98141 12.6709C6.19742 12.6094 6.38645 12.477 6.51807 12.295C6.64969 12.1131 6.71623 11.8921 6.70698 11.6677C6.69773 11.4433 6.61324 11.2285 6.46709 11.058C6.32095 10.8874 6.12167 10.7711 5.90133 10.7275C5.41887 10.6323 4.96487 10.427 4.57464 10.1277C4.18441 9.82845 3.86845 9.44321 3.65133 9.00196C3.83206 9.02662 4.01394 9.04194 4.19625 9.04786C4.41283 9.05113 4.62484 8.98543 4.80162 8.86026C4.97841 8.73509 5.1108 8.55694 5.17965 8.35157C5.24563 8.14433 5.24223 7.92123 5.16998 7.7161C5.09772 7.51096 4.96055 7.33499 4.77926 7.21485C4.33941 6.92182 3.9791 6.52427 3.73061 6.0578C3.48213 5.59134 3.35322 5.07052 3.35543 4.54201C3.35543 4.47561 3.35738 4.4092 3.36129 4.34377C5.60255 6.43402 8.50961 7.66621 11.5703 7.82326C11.7248 7.82934 11.8786 7.80024 12.0202 7.73816C12.1618 7.67607 12.2875 7.58262 12.3877 7.46486C12.4869 7.34596 12.5571 7.20566 12.5928 7.05501C12.6286 6.90437 12.6289 6.74748 12.5937 6.5967C12.5365 6.35806 12.5073 6.11357 12.5068 5.86818C12.5077 5.01271 12.8479 4.19254 13.4528 3.58764C14.0577 2.98274 14.8779 2.64251 15.7334 2.64161C16.1735 2.64043 16.6091 2.7305 17.0127 2.90615C17.4162 3.0818 17.779 3.3392 18.0781 3.66212C18.1934 3.7862 18.3386 3.87871 18.4998 3.93085C18.661 3.98299 18.8328 3.99303 18.999 3.96001C19.4097 3.88006 19.8146 3.7724 20.2109 3.63775C19.9406 4.19072 19.5952 4.70369 19.1845 5.16212Z" fill="#F5EFDB"/>
</svg>
